<svg xmlns="http://www.w3.org/2000/svg"  viewBox="0 0 50 50" width="25px" height="25px"><path d="M39.5 37c.276 0 .5.224.5.5 0 .276-.224.5-.5.5-.062 0-28.938 0-29 0-.276 0-.5-.224-.5-.5 0-.276.224-.5.5-.5C10.562 37 39.438 37 39.5 37zM39.5 24.5c.276 0 .5.224.5.5 0 .276-.224.5-.5.5-.062 0-28.938 0-29 0-.276 0-.5-.224-.5-.5 0-.276.224-.5.5-.5C10.562 24.5 39.438 24.5 39.5 24.5zM39.5 12c.276 0 .5.224.5.5 0 .276-.224.5-.5.5-.062 0-28.938 0-29 0-.276 0-.5-.224-.5-.5 0-.276.224-.5.5-.5C10.562 12 39.438 12 39.5 12z"/></svg>